<svg id="Capa_1" height="512" viewBox="0 0 512.001 512.001" width="512" xmlns="http://www.w3.org/2000/svg"><path d="M159.064 487.055L208.002 432V248h-72l7.292 233.339c.254 8.159 10.347 11.817 15.77 5.716z" fill="#b3b5b6"/><path d="M408.002 432l8 72s-53-11-76.667-107.333L400.002 344z" fill="#f5df4d"/><path d="M320.002 72H283.47c-64.807 6.301-115.468 77.539-115.468 144h-6.625c-16.713 0-31.638 12.219-33.225 28.856-1.821 19.086 13.139 35.144 31.85 35.144h8.404c1.763 30.22 13.365 57.796 31.653 79.551v74.205a56 56 0 01-4.294 21.506l-6.156 14.801c-1.604 3.856-1.03 8.328 1.704 11.486 9.043 10.443 36.363 19.486 69.173 21.863 36.854 2.67 68.066-3.982 74.627-15.182 1.093-1.866 1.134-4.169.365-6.19l-11.559-31.753a63.998 63.998 0 01-3.86-21.892V406.85c54.248-7.789 95.943-54.446 95.943-110.849V168c0-53.019-42.981-96-96-96z" fill="#fff"/><circle cx="264.002" cy="240" fill="#d4d5d5" r="16"/><circle cx="376.002" cy="240" fill="#d4d5d5" r="16"/><path d="M317.493 407.111c-45.566-19.596-77.491-64.862-77.491-117.611V183.849c0-10.585 5.198-20.564 13.98-26.472 6.152-4.139 12.306-8.047 18.336-11.861 4.608-2.914 9.173-5.804 13.622-8.733a40.074 40.074 0 0018.062-33.475V72s-176 120-176 176c0 17.673 14.327 32 32 32h8.404c1.763 30.22 13.365 57.796 31.653 79.551v80.689c0 6.249-5.386 18.711-9.908 28.072-3.844 7.957-.472 17.39 7.415 21.376 17.093 8.637 40.4 11.851 58.493 13.521v-57.98c0-9.981 9.036-17.524 18.848-15.694a158.907 158.907 0 0029.152 2.702c5.425 0 10.741-.433 16-1.056v-20.368z" fill="#f5df4d"/><path d="M320.002 8h-56c-88.366 0-160 71.634-160 160v33.333l.164-.005c-5.791 13.708-10.816 28.602-14.578 45.165-3.702 16.312-5.844 38.137-7.897 57.683-5.022 47.825 23.452 84.87 23.452 84.87C134.502 446.5 112.002 504 112.002 504c44.666-83.333 21-159.667 40-243.333 29.822-131.323 149-131.667 160-188.667 0 0 104 0 104 96v120l12.575-25.149a184.007 184.007 0 0019.425-82.287V136c0-70.692-57.308-128-128-128z" fill="#d4d5d5"/><path d="M416.002 168v120l12.575-25.149a184.007 184.007 0 0019.425-82.287V136c0-70.692-57.308-128-128-128h-56c-1.35 0-2.657.169-4 .202 44 0 68 23.798 68 63.798h-16s104 0 104 96z" fill="#f5df4d"/><path d="M104.002 168v33.333l.164-.005c-5.791 13.708-10.816 28.602-14.578 45.165-3.702 16.312-5.844 38.137-7.897 57.683-5.022 47.825 23.452 84.87 23.452 84.87C134.502 446.5 112.002 504 112.002 504c44.666-83.333 18.808-160.195 40-243.333 8.667-34 28.667-67.333 28.667-67.333l-.026-.028c-48.141-53.172-33.77-138.615 30.3-170.861C229.303 13.203 250.045 8 272.002 8h-8c-88.366 0-160 71.634-160 160z" fill="#b3b5b6"/><path d="M299.84 337.5a7.975 7.975 0 01-6.051-2.762 7.998 7.998 0 01.809-11.285c5.836-5.055 14.426-7.953 23.574-7.953 9.152 0 17.742 2.898 23.574 7.957a8.002 8.002 0 01.801 11.285c-2.891 3.336-7.941 3.695-11.285.801-5.836-5.062-20.336-5.066-26.188.004a7.98 7.98 0 01-5.234 1.953z" fill="#d4d5d5"/><g fill="#939597"><path d="M300.095 299.114c5.674 5.354 13.306 8.302 21.49 8.302 8.183 0 15.814-2.948 21.49-8.302a8 8 0 00-10.979-11.639c-2.654 2.504-6.485 3.94-10.51 3.94s-7.856-1.436-10.51-3.94a8.001 8.001 0 00-10.981 11.639zm-68.754-87.779a7.96 7.96 0 003.501-.812c.045-.022 4.934-2.283 14.235-4.056 9.274-1.768 24.709-3.363 45.571-.923a7.995 7.995 0 008.875-7.017 8 8 0 00-7.017-8.875c-44.16-5.166-67.699 6.011-68.679 6.489a8 8 0 00-3.683 10.698 8 8 0 007.197 4.496zm99.12 139.332c-3.932.729-7.815 1.098-11.542 1.098-3.612 0-7.55-.346-11.704-1.029a8 8 0 10-2.594 15.788c5.009.823 9.82 1.241 14.299 1.241 4.702 0 9.566-.459 14.457-1.366a8.001 8.001 0 006.409-9.324 8.002 8.002 0 00-9.325-6.408zm32.023-28.067a8 8 0 00-10.441-4.356 7.971 7.971 0 00-4.478 4.696c-7.439 1.769-17.79 2.798-28.647 2.798-11.453 0-22.342-1.145-29.842-3.096a7.97 7.97 0 00-4.621-4.652 8 8 0 00-10.329 4.617l-2.396 6.269a8 8 0 007.471 10.858c1.852 0 3.63-.665 5.049-1.821 8.965 2.44 21.398 3.825 34.667 3.825 13.139 0 25.458-1.359 34.402-3.754a8.013 8.013 0 004.003 1.097 8 8 0 007.396-11.044zm-77.699-70.594a8 8 0 00-13.85-8.012 8.035 8.035 0 01-6.934 4.005c-4.411 0-8-3.589-8-8s3.589-8 8-8a8 8 0 000-16c-10.429 0-19.322 6.689-22.624 16h-9.376a8 8 0 000 16h9.376c3.302 9.311 12.195 16 22.624 16 8.541.001 16.505-4.595 20.784-11.993z"/><path d="M320.002 0h-56c-92.636 0-168 75.364-168 168v31.667c-5.656 13.678-10.487 28.639-14.216 45.055-3.241 14.279-5.955 34.053-8.066 58.772-2.747 32.149 6.11 64.196 24.939 90.238l1.792 2.478c-1.607 18.447-4.321 36.319-9.399 54.307-1.472 5.216-6.099 7.455-9.613 7.787-2.11.198-7.329.025-10.282-5.882a8 8 0 00-14.311 7.155c4.642 9.284 13.484 14.78 23.484 14.78.863 0 1.736-.041 2.615-.125 11.258-1.064 20.484-8.667 23.505-19.369 9.39-33.261 11.11-65.445 12.266-101.059 1.023-31.514 2.081-64.102 9.88-98.455 20.089-88.445 79.052-125.729 118.069-150.401 25.862-16.356 37.855-26.837 41.396-36.175 7.133-18.814-5.433-30.778-13.074-34.475a8.001 8.001 0 00-6.969 14.403c.021.011 2.316 1.237 4.092 3.545 2.333 3.033 2.648 6.482.99 10.855-1.41 3.719-8.625 11.652-34.986 28.325-41.242 26.079-103.566 65.489-125.12 160.381-8.138 35.848-9.221 69.212-10.269 101.48-.171 5.263-.358 10.44-.578 15.559-9.99-19.597-14.385-41.763-12.485-63.991 2.049-23.989 4.649-43.029 7.727-56.592 23.018-101.339 91.348-144.546 132.173-170.362a8 8 0 00-8.552-13.523c-30.837 19.499-76.602 48.439-109.003 103.174C112.25 83.945 180.338 16 264.002 16h56c47.803 0 89.162 28.1 108.441 68.646-7.44-9.263-15.538-16.594-23.158-22.277C379.787 43.353 344.915 32 312.002 32a8 8 0 000 16c29.588 0 60.885 10.167 83.718 27.195C424.69 96.8 440.002 128.892 440.002 168v12.563c0 25.18-5.524 50.387-16 73.291V168c0-53.821-30.805-79.336-56.647-91.264C340.072 64.145 313.135 64 312.002 64a8 8 0 00-7.855 6.484c-3.746 19.411-23.687 32.021-48.933 47.986-20.17 12.755-43.031 27.212-63.415 48.831-23.754 25.194-39.324 55.155-47.599 91.594-7.463 32.862-8.495 64.668-9.492 95.428-1.604 49.473-3.121 96.201-29.757 145.898a8 8 0 0014.101 7.559c22.82-42.575 28.368-83.737 30.495-123.755 7.753 5.121 16.927 7.976 26.455 7.976 5.609 0 10.992-.976 16-2.752v44.509a47.751 47.751 0 01-3.681 18.434l-6.156 14.801c-2.822 6.785-1.656 14.37 3.043 19.795 10.775 12.444 40.074 22.102 74.643 24.605a225.95 225.95 0 0016.296.591c29.034 0 57.622-5.728 65.812-19.708 2.269-3.873 2.618-8.613.962-13.017L331.38 447.55a55.826 55.826 0 01-3.378-19.155v-14.807a119.241 119.241 0 0037.884-14.811l8.354 62.656C378.085 490.261 402.917 512 432.002 512a8 8 0 000-16c-21.099 0-39.113-15.77-41.902-36.682l-9.472-71.04a120.99 120.99 0 0014.271-14.02l11.059 82.94c1.733 13 12.93 22.803 26.044 22.803 13.234 0 24-10.766 24-24a8 8 0 00-16 0c0 4.411-3.589 8-8 8-5.128 0-9.507-3.833-10.185-8.917l-8.628-64.711c20.871-5.53 35.572-24.329 35.572-46.372a47.913 47.913 0 00-24.906-42.084c.096-1.96.147-3.932.147-5.916v-6.112l11.73-23.46c13.261-26.522 20.27-56.213 20.27-85.865V136c0-74.991-61.01-136-136-136zM206.244 354.438a127.716 127.716 0 01-23.454-41.706c14.394 3.123 25.211 15.953 25.211 31.268a31.799 31.799 0 01-1.757 10.438zm-50.988-66.718c1.571.186 3.156.28 4.745.28h1.054c.371 3.352.858 6.667 1.454 9.943a47.881 47.881 0 00-8.853 3.572c.456-4.586.968-9.183 1.6-13.795zM176.002 376c-10.064 0-19.54-4.769-25.579-12.792.095-2.794.187-5.583.277-8.367.342-10.55.695-21.228 1.31-32.001a31.973 31.973 0 0114.25-9.315c5.416 18.022 14.254 34.524 25.742 48.776v9.394a31.796 31.796 0 01-16 4.305zm140.342 77.022l11.504 31.603c-1.681 2.123-7.485 5.905-20.363 8.562-12.986 2.679-29.492 3.477-46.479 2.246-33.022-2.392-57.042-11.429-63.703-19.121-.692-.799-.835-2.046-.365-3.176l6.156-14.801a63.69 63.69 0 004.907-24.578v-54.018c.104-.094.212-.184.316-.279 25.498 22.76 59.084 36.54 95.684 36.54 2.689 0 5.355-.098 8-.273v12.668a71.83 71.83 0 004.343 24.627zM304.002 400c-32.89 0-63.041-12.523-85.792-33.157A47.704 47.704 0 00224.002 344c0-25.649-20.222-46.663-45.56-47.938a128.477 128.477 0 01-2.05-16.528 8 8 0 00-7.986-7.534h-8.404c-.727 0-1.451-.032-2.171-.097a275.98 275.98 0 011.972-9.465c17.157-75.551 65.289-105.988 103.963-130.445 24.916-15.756 46.739-29.556 54.281-51.654 8.845.759 26.092 3.211 43.039 11.127 31.131 14.542 46.916 40.292 46.916 76.534v25.029c-10.429-2.028-30.17-4.513-57.403-1.995a8 8 0 00-7.229 8.702c.406 4.4 4.296 7.643 8.702 7.229 28.644-2.646 48.271.699 55.93 2.421V232h-16a8 8 0 00-8 8c0 4.411-3.589 8-8 8s-8-3.589-8-8a7.993 7.993 0 014.889-7.375 7.999 7.999 0 004.251-10.484 7.999 7.999 0 00-10.484-4.251A23.963 23.963 0 00352.003 240c0 13.234 10.766 24 24 24 10.429 0 19.322-6.689 22.624-16h9.376v48c-.001 57.346-46.656 104-104.001 104zm128.759-56c0 13.985-8.871 26.008-21.713 30.316l-2.577-19.33a119.166 119.166 0 0013.167-35.238A31.947 31.947 0 01432.761 344z"/></g></svg>