<svg id="Avatar" height="512" viewBox="0 0 64 64" width="512" xmlns="http://www.w3.org/2000/svg"><path d="M20 45h24a8 8 0 018 8v8H12v-8a8 8 0 018-8z" fill="#5bcbfa"/><path d="M29 49h6l1 12h-8z" fill="#ec455a"/><path d="M23 45l2 8 5-4-1-4zm18 0l-2 8-5-4 1-4z" fill="#fff"/><path d="M38 45l-6 6-6-6 1-12h10z" fill="#ffcbbe"/><path d="M32 40a13 13 0 01-13-13V14a6 6 0 012.4-4.8A6 6 0 0125 8h14a6 6 0 013.6 1.2A6 6 0 0145 14v13a13 13 0 01-13 13z" fill="#ffddce"/><path d="M17 19h2v7h-2a2 2 0 01-2-2v-3a2 2 0 012-2z" fill="#ffcbbe"/><path d="M47 19h2v7h-2a2 2 0 01-2-2v-3a2 2 0 012-2z" fill="#ffcbbe" transform="rotate(180 47 22.5)"/><path d="M48 15v4h-4.764a2 2 0 01-1.789-1.106l-2.618-5.236A3 3 0 0036.146 11h-.115a3 3 0 00-2.785 1.886l-.469 1.172a4 4 0 01-2.815 2.412L19 19h-3v-4A12 12 0 0128 3h8a12 12 0 0112 12z" fill="#3e3d42"/><path d="M35.59 28.38l8.54 3.29a13 13 0 01-24.26 0l8.54-3.29a9.988 9.988 0 017.18 0z" fill="#b4e6ee"/><path d="M27 21a1 1 0 00-1 1v2a1 1 0 002 0v-2a1 1 0 00-1-1zm10 4a1 1 0 001-1v-2a1 1 0 00-2 0v2a1 1 0 001 1z" fill="#3e3d42"/></svg>