<svg id="_x31_-outline-expand" height="512" viewBox="0 0 64 64" width="512" xmlns="http://www.w3.org/2000/svg"><path d="M32 62H3v-1a11.03 11.03 0 013.12-4.74C7.54 55 9.28 54.1 11.19 53.7l2.2-.46 7.43-1.57A4.004 4.004 0 0024 47.75v-2.64h16v2.64c0 1.9 1.33 3.53 3.18 3.92l7.43 1.57 2.2.46c3.83.8 6.95 3.58 8.19 7.3v1z" fill="#4f5559"/><path d="M43.18 51.67l7.43 1.57C46.71 57.3 39.83 60 32 60s-14.71-2.7-18.61-6.76l7.43-1.57A4.004 4.004 0 0024 47.75v-2.64h16v2.64c0 1.9 1.33 3.53 3.18 3.92" fill="#f2daae"/><path d="M50 22v7c0 9.94-8.06 18-18 18s-18-8.06-18-18v-8c0-9.94 8.06-18 18-18 4.97 0 9.47 2.02 12.73 5.27C47.98 11.53 50 16.03 50 21z" fill="#f2daae"/><path d="M44 31l-12-2-12 2v12a20.001 20.001 0 0024 0z" fill="#62c4c3"/><path d="M12 29h2v-8h-2a4 4 0 000 8" fill="#e0c485"/><path d="M50 12h-2.428a17.86 17.86 0 012.334 7.153c.059.273.094.556.094.847v16c0 6.075 4.925 11 11 11V23c0-6.075-4.925-11-11-11" fill="#aa494a"/><path d="M52 21h-2v8h2a4 4 0 000-8" fill="#e0c485"/><path d="M50 21v1c-12.71 0-23-4.92-23-11 0 6.08-5.81 11-13 11v-1c0-9.94 8.06-18 18-18 4.97 0 9.47 2.02 12.73 5.27C47.98 11.53 50 16.03 50 21" fill="#d36767"/><g fill="#3a4249"><path d="M44.6 43.8a1 1 0 00.4-.8v-.197a19.065 19.065 0 004.069-5.538C49.703 43.289 54.811 48 61 48a1 1 0 001-1V23c0-6.617-5.383-12-12-12h-1.875C44.769 5.608 38.805 2 32 2 21.861 2 13.576 9.989 13.051 20H12c-2.757 0-5 2.243-5 5s2.243 5 5 5h1.054A19.003 19.003 0 0019 42.803V43a1 1 0 00.4.8 20.741 20.741 0 003.6 2.149v1.805a3.013 3.013 0 01-2.382 2.936l-9.635 2.029a12.066 12.066 0 00-8.931 7.965A.974.974 0 002 61v1h2v-.833a10.063 10.063 0 017.395-6.491l1.675-.353C17.365 58.51 24.384 61 32 61c7.617 0 14.636-2.49 18.93-6.677l1.675.353A10.06 10.06 0 0160 61.167V62h2v-1a1 1 0 00-.051-.316 12.068 12.068 0 00-8.932-7.965l-9.635-2.029A3.014 3.014 0 0141 47.754v-1.805a20.741 20.741 0 003.6-2.149M20.392 29.921L15 23.63v-.673c5.699-.348 10.457-3.624 12.238-8.085 3.032 4.587 11.348 7.866 21.524 8.113l-5.197 6.929-11.4-1.9a.957.957 0 00-.329 0zM52 22c1.655 0 3 1.346 3 3s-1.345 3-3 3h-1v-6zm-7 17.891v-8.558L49 26v3c0 3.997-1.447 7.846-4 10.891M50 13c5.514 0 10 4.486 10 10v22.95c-5.046-.503-9-4.774-9-9.95v-6h1c2.757 0 5-2.243 5-5s-2.243-5-5-5h-1.051a18.82 18.82 0 00-1.739-7zM32 4c9.37 0 16.993 7.62 17 16.988-11.483-.247-21-4.72-21-9.988h-2c0 5.232-4.849 9.531-10.998 9.958C15.026 11.604 22.64 4 32 4M9 25c0-1.654 1.346-3 3-3h1v6h-1c-1.654 0-3-1.346-3-3m6 4v-2.297l4 4.667v8.521c-2.553-3.045-4-6.894-4-10.891m6 11.22l3.804.76.393-1.96L21 38.18v-2.36l4.197-.84-.393-1.96-3.804.76v-1.933l11-1.833 11 1.833v1.933l-3.803-.76-.393 1.96 4.196.84v2.36l-4.196.84.393 1.96L43 40.22v2.272c-6.547 4.645-15.453 4.645-22 0zm21.97 12.427l5.538 1.166C44.528 57.084 38.517 59 32 59s-12.527-1.916-16.508-5.187l5.539-1.166A5.022 5.022 0 0025 47.754v-.982c2.261.792 4.628 1.201 7 1.201s4.74-.409 7-1.201v.982a5.023 5.023 0 003.97 4.893"/><path d="M25 24a2 2 0 10.001 4.001A2 2 0 0025 24m14 4a2 2 0 10-.001-4.001A2 2 0 0039 28"/></g></svg>